<mxfile host="app.diagrams.net" agent="Mozilla/5.0 (Windows NT 10.0; Win64; x64) AppleWebKit/537.36 (KHTML, like Gecko) Chrome/134.0.0.0 Safari/537.36" version="26.2.6">
  <diagram name="Page-1" id="1divVidilToi--kyvJ_S">
    <mxGraphModel dx="842" dy="1601" grid="1" gridSize="10" guides="1" tooltips="1" connect="1" arrows="1" fold="1" page="1" pageScale="1" pageWidth="850" pageHeight="1100" math="0" shadow="0">
      <root>
        <mxCell id="0" />
        <mxCell id="1" parent="0" />
        <mxCell id="3TpAt6abaZI0W-LzQXr_-4" style="edgeStyle=orthogonalEdgeStyle;rounded=0;orthogonalLoop=1;jettySize=auto;html=1;entryX=0.5;entryY=0;entryDx=0;entryDy=0;" edge="1" parent="1" source="3TpAt6abaZI0W-LzQXr_-1" target="3TpAt6abaZI0W-LzQXr_-3">
          <mxGeometry relative="1" as="geometry" />
        </mxCell>
        <mxCell id="3TpAt6abaZI0W-LzQXr_-1" value="Start" style="rounded=1;whiteSpace=wrap;html=1;" vertex="1" parent="1">
          <mxGeometry x="345" y="-1090" width="120" height="60" as="geometry" />
        </mxCell>
        <mxCell id="3TpAt6abaZI0W-LzQXr_-5" style="edgeStyle=orthogonalEdgeStyle;rounded=0;orthogonalLoop=1;jettySize=auto;html=1;exitX=0;exitY=1;exitDx=0;exitDy=0;entryX=0.5;entryY=0;entryDx=0;entryDy=0;" edge="1" parent="1" source="3TpAt6abaZI0W-LzQXr_-3" target="3TpAt6abaZI0W-LzQXr_-8">
          <mxGeometry relative="1" as="geometry">
            <mxPoint x="175" y="-860" as="targetPoint" />
          </mxGeometry>
        </mxCell>
        <mxCell id="3TpAt6abaZI0W-LzQXr_-6" style="edgeStyle=orthogonalEdgeStyle;rounded=0;orthogonalLoop=1;jettySize=auto;html=1;exitX=0.5;exitY=1;exitDx=0;exitDy=0;" edge="1" parent="1" source="3TpAt6abaZI0W-LzQXr_-3">
          <mxGeometry relative="1" as="geometry">
            <mxPoint x="405" y="-800" as="targetPoint" />
          </mxGeometry>
        </mxCell>
        <mxCell id="3TpAt6abaZI0W-LzQXr_-7" style="edgeStyle=orthogonalEdgeStyle;rounded=0;orthogonalLoop=1;jettySize=auto;html=1;exitX=1;exitY=1;exitDx=0;exitDy=0;entryX=0.559;entryY=0.032;entryDx=0;entryDy=0;entryPerimeter=0;" edge="1" parent="1" source="3TpAt6abaZI0W-LzQXr_-3" target="3TpAt6abaZI0W-LzQXr_-10">
          <mxGeometry relative="1" as="geometry">
            <mxPoint x="685" y="-860" as="targetPoint" />
          </mxGeometry>
        </mxCell>
        <mxCell id="3TpAt6abaZI0W-LzQXr_-3" value="isSudokuValid" style="rounded=0;whiteSpace=wrap;html=1;" vertex="1" parent="1">
          <mxGeometry x="325" y="-960" width="160" height="60" as="geometry" />
        </mxCell>
        <mxCell id="3TpAt6abaZI0W-LzQXr_-14" style="edgeStyle=orthogonalEdgeStyle;rounded=0;orthogonalLoop=1;jettySize=auto;html=1;entryX=0.5;entryY=0;entryDx=0;entryDy=0;" edge="1" parent="1" source="3TpAt6abaZI0W-LzQXr_-8" target="3TpAt6abaZI0W-LzQXr_-11">
          <mxGeometry relative="1" as="geometry" />
        </mxCell>
        <mxCell id="3TpAt6abaZI0W-LzQXr_-8" value="checkRow" style="rounded=0;whiteSpace=wrap;html=1;" vertex="1" parent="1">
          <mxGeometry x="115" y="-800" width="120" height="60" as="geometry" />
        </mxCell>
        <mxCell id="3TpAt6abaZI0W-LzQXr_-15" style="edgeStyle=orthogonalEdgeStyle;rounded=0;orthogonalLoop=1;jettySize=auto;html=1;entryX=0.5;entryY=0;entryDx=0;entryDy=0;" edge="1" parent="1" source="3TpAt6abaZI0W-LzQXr_-9" target="3TpAt6abaZI0W-LzQXr_-12">
          <mxGeometry relative="1" as="geometry" />
        </mxCell>
        <mxCell id="3TpAt6abaZI0W-LzQXr_-9" value="checkCol" style="rounded=0;whiteSpace=wrap;html=1;" vertex="1" parent="1">
          <mxGeometry x="345" y="-800" width="120" height="60" as="geometry" />
        </mxCell>
        <mxCell id="3TpAt6abaZI0W-LzQXr_-16" style="edgeStyle=orthogonalEdgeStyle;rounded=0;orthogonalLoop=1;jettySize=auto;html=1;entryX=0.5;entryY=0;entryDx=0;entryDy=0;" edge="1" parent="1" source="3TpAt6abaZI0W-LzQXr_-10" target="3TpAt6abaZI0W-LzQXr_-13">
          <mxGeometry relative="1" as="geometry" />
        </mxCell>
        <mxCell id="3TpAt6abaZI0W-LzQXr_-10" value="checkSubgrid" style="rounded=0;whiteSpace=wrap;html=1;" vertex="1" parent="1">
          <mxGeometry x="575" y="-790" width="120" height="60" as="geometry" />
        </mxCell>
        <mxCell id="3TpAt6abaZI0W-LzQXr_-17" style="edgeStyle=orthogonalEdgeStyle;rounded=0;orthogonalLoop=1;jettySize=auto;html=1;" edge="1" parent="1" source="3TpAt6abaZI0W-LzQXr_-11">
          <mxGeometry relative="1" as="geometry">
            <mxPoint x="80" y="-470" as="targetPoint" />
            <Array as="points">
              <mxPoint x="98" y="-610" />
              <mxPoint x="98" y="-609" />
            </Array>
          </mxGeometry>
        </mxCell>
        <mxCell id="3TpAt6abaZI0W-LzQXr_-44" style="edgeStyle=orthogonalEdgeStyle;rounded=0;orthogonalLoop=1;jettySize=auto;html=1;exitX=1;exitY=0.5;exitDx=0;exitDy=0;entryX=1;entryY=0.25;entryDx=0;entryDy=0;" edge="1" parent="1" source="3TpAt6abaZI0W-LzQXr_-11" target="3TpAt6abaZI0W-LzQXr_-29">
          <mxGeometry relative="1" as="geometry" />
        </mxCell>
        <mxCell id="3TpAt6abaZI0W-LzQXr_-11" value="if row is valied" style="rhombus;whiteSpace=wrap;html=1;" vertex="1" parent="1">
          <mxGeometry x="125" y="-670" width="100" height="120" as="geometry" />
        </mxCell>
        <mxCell id="3TpAt6abaZI0W-LzQXr_-18" style="edgeStyle=orthogonalEdgeStyle;rounded=0;orthogonalLoop=1;jettySize=auto;html=1;exitX=0;exitY=0.5;exitDx=0;exitDy=0;" edge="1" parent="1" source="3TpAt6abaZI0W-LzQXr_-12">
          <mxGeometry relative="1" as="geometry">
            <mxPoint x="320" y="-480" as="targetPoint" />
          </mxGeometry>
        </mxCell>
        <mxCell id="3TpAt6abaZI0W-LzQXr_-12" value="if col is valid" style="rhombus;whiteSpace=wrap;html=1;" vertex="1" parent="1">
          <mxGeometry x="355" y="-670" width="100" height="120" as="geometry" />
        </mxCell>
        <mxCell id="3TpAt6abaZI0W-LzQXr_-19" style="edgeStyle=orthogonalEdgeStyle;rounded=0;orthogonalLoop=1;jettySize=auto;html=1;" edge="1" parent="1" source="3TpAt6abaZI0W-LzQXr_-13">
          <mxGeometry relative="1" as="geometry">
            <mxPoint x="620" y="-490" as="targetPoint" />
          </mxGeometry>
        </mxCell>
        <mxCell id="3TpAt6abaZI0W-LzQXr_-28" style="edgeStyle=orthogonalEdgeStyle;rounded=0;orthogonalLoop=1;jettySize=auto;html=1;" edge="1" parent="1" source="3TpAt6abaZI0W-LzQXr_-13">
          <mxGeometry relative="1" as="geometry">
            <mxPoint x="800" y="-360" as="targetPoint" />
          </mxGeometry>
        </mxCell>
        <mxCell id="3TpAt6abaZI0W-LzQXr_-13" value="if grid is valid" style="rhombus;whiteSpace=wrap;html=1;" vertex="1" parent="1">
          <mxGeometry x="635" y="-680" width="100" height="120" as="geometry" />
        </mxCell>
        <mxCell id="3TpAt6abaZI0W-LzQXr_-20" value="yes" style="text;html=1;align=center;verticalAlign=middle;whiteSpace=wrap;rounded=0;" vertex="1" parent="1">
          <mxGeometry x="80" y="-635" width="60" height="30" as="geometry" />
        </mxCell>
        <mxCell id="3TpAt6abaZI0W-LzQXr_-21" value="yes" style="text;html=1;align=center;verticalAlign=middle;whiteSpace=wrap;rounded=0;" vertex="1" parent="1">
          <mxGeometry x="300" y="-640" width="60" height="30" as="geometry" />
        </mxCell>
        <mxCell id="3TpAt6abaZI0W-LzQXr_-22" value="yes" style="text;html=1;align=center;verticalAlign=middle;whiteSpace=wrap;rounded=0;" vertex="1" parent="1">
          <mxGeometry x="575" y="-650" width="60" height="30" as="geometry" />
        </mxCell>
        <mxCell id="3TpAt6abaZI0W-LzQXr_-36" style="edgeStyle=orthogonalEdgeStyle;rounded=0;orthogonalLoop=1;jettySize=auto;html=1;exitX=0.5;exitY=1;exitDx=0;exitDy=0;entryX=0.333;entryY=0.5;entryDx=0;entryDy=0;entryPerimeter=0;" edge="1" parent="1" source="3TpAt6abaZI0W-LzQXr_-23" target="3TpAt6abaZI0W-LzQXr_-35">
          <mxGeometry relative="1" as="geometry">
            <mxPoint x="75" y="-160" as="targetPoint" />
          </mxGeometry>
        </mxCell>
        <mxCell id="3TpAt6abaZI0W-LzQXr_-23" value="return ture" style="shape=parallelogram;perimeter=parallelogramPerimeter;whiteSpace=wrap;html=1;fixedSize=1;" vertex="1" parent="1">
          <mxGeometry x="25" y="-470" width="100" height="50" as="geometry" />
        </mxCell>
        <mxCell id="3TpAt6abaZI0W-LzQXr_-39" style="edgeStyle=orthogonalEdgeStyle;rounded=0;orthogonalLoop=1;jettySize=auto;html=1;exitX=0.75;exitY=1;exitDx=0;exitDy=0;entryX=0.56;entryY=0.045;entryDx=0;entryDy=0;entryPerimeter=0;" edge="1" parent="1" source="3TpAt6abaZI0W-LzQXr_-24" target="3TpAt6abaZI0W-LzQXr_-35">
          <mxGeometry relative="1" as="geometry">
            <mxPoint x="390" y="-120" as="targetPoint" />
          </mxGeometry>
        </mxCell>
        <mxCell id="3TpAt6abaZI0W-LzQXr_-24" value="return ture" style="shape=parallelogram;perimeter=parallelogramPerimeter;whiteSpace=wrap;html=1;fixedSize=1;" vertex="1" parent="1">
          <mxGeometry x="270" y="-480" width="100" height="50" as="geometry" />
        </mxCell>
        <mxCell id="3TpAt6abaZI0W-LzQXr_-25" value="return ture" style="shape=parallelogram;perimeter=parallelogramPerimeter;whiteSpace=wrap;html=1;fixedSize=1;" vertex="1" parent="1">
          <mxGeometry x="575" y="-480" width="100" height="50" as="geometry" />
        </mxCell>
        <mxCell id="3TpAt6abaZI0W-LzQXr_-38" style="edgeStyle=orthogonalEdgeStyle;rounded=0;orthogonalLoop=1;jettySize=auto;html=1;entryX=0;entryY=0.25;entryDx=0;entryDy=0;" edge="1" parent="1" source="3TpAt6abaZI0W-LzQXr_-29" target="3TpAt6abaZI0W-LzQXr_-35">
          <mxGeometry relative="1" as="geometry">
            <Array as="points">
              <mxPoint x="205" y="-420" />
              <mxPoint x="285" y="-420" />
              <mxPoint x="285" y="-175" />
            </Array>
          </mxGeometry>
        </mxCell>
        <mxCell id="3TpAt6abaZI0W-LzQXr_-29" value="return false" style="shape=parallelogram;perimeter=parallelogramPerimeter;whiteSpace=wrap;html=1;fixedSize=1;" vertex="1" parent="1">
          <mxGeometry x="150" y="-470" width="110" height="40" as="geometry" />
        </mxCell>
        <mxCell id="3TpAt6abaZI0W-LzQXr_-40" style="edgeStyle=orthogonalEdgeStyle;rounded=0;orthogonalLoop=1;jettySize=auto;html=1;exitX=0.25;exitY=1;exitDx=0;exitDy=0;entryX=0.75;entryY=0;entryDx=0;entryDy=0;" edge="1" parent="1" source="3TpAt6abaZI0W-LzQXr_-30" target="3TpAt6abaZI0W-LzQXr_-35">
          <mxGeometry relative="1" as="geometry" />
        </mxCell>
        <mxCell id="3TpAt6abaZI0W-LzQXr_-42" style="edgeStyle=orthogonalEdgeStyle;rounded=0;orthogonalLoop=1;jettySize=auto;html=1;exitX=0;exitY=1;exitDx=0;exitDy=0;" edge="1" parent="1" source="3TpAt6abaZI0W-LzQXr_-31" target="3TpAt6abaZI0W-LzQXr_-35">
          <mxGeometry relative="1" as="geometry" />
        </mxCell>
        <mxCell id="3TpAt6abaZI0W-LzQXr_-31" value="return false" style="shape=parallelogram;perimeter=parallelogramPerimeter;whiteSpace=wrap;html=1;fixedSize=1;" vertex="1" parent="1">
          <mxGeometry x="750" y="-480" width="100" height="50" as="geometry" />
        </mxCell>
        <mxCell id="3TpAt6abaZI0W-LzQXr_-32" value="no" style="text;html=1;align=center;verticalAlign=middle;whiteSpace=wrap;rounded=0;" vertex="1" parent="1">
          <mxGeometry x="220" y="-640" width="60" height="30" as="geometry" />
        </mxCell>
        <mxCell id="3TpAt6abaZI0W-LzQXr_-33" value="no" style="text;html=1;align=center;verticalAlign=middle;whiteSpace=wrap;rounded=0;" vertex="1" parent="1">
          <mxGeometry x="740" y="-650" width="60" height="30" as="geometry" />
        </mxCell>
        <mxCell id="3TpAt6abaZI0W-LzQXr_-34" value="no" style="text;html=1;align=center;verticalAlign=middle;whiteSpace=wrap;rounded=0;" vertex="1" parent="1">
          <mxGeometry x="440" y="-640" width="60" height="30" as="geometry" />
        </mxCell>
        <mxCell id="3TpAt6abaZI0W-LzQXr_-35" value="&lt;br&gt;checkRow&amp;amp;&amp;amp; checkCol &amp;amp;&amp;amp; checkSubgrid&lt;div&gt;&lt;br/&gt;&lt;/div&gt;" style="rounded=1;whiteSpace=wrap;html=1;" vertex="1" parent="1">
          <mxGeometry x="310" y="-190" width="370" height="60" as="geometry" />
        </mxCell>
        <mxCell id="3TpAt6abaZI0W-LzQXr_-41" style="edgeStyle=orthogonalEdgeStyle;rounded=0;orthogonalLoop=1;jettySize=auto;html=1;exitX=0.25;exitY=1;exitDx=0;exitDy=0;entryX=1.023;entryY=0.122;entryDx=0;entryDy=0;entryPerimeter=0;" edge="1" parent="1" source="3TpAt6abaZI0W-LzQXr_-25" target="3TpAt6abaZI0W-LzQXr_-35">
          <mxGeometry relative="1" as="geometry">
            <Array as="points">
              <mxPoint x="600" y="-310" />
              <mxPoint x="650" y="-310" />
              <mxPoint x="650" y="-183" />
            </Array>
          </mxGeometry>
        </mxCell>
        <mxCell id="3TpAt6abaZI0W-LzQXr_-43" value="" style="edgeStyle=orthogonalEdgeStyle;rounded=0;orthogonalLoop=1;jettySize=auto;html=1;exitX=0.25;exitY=1;exitDx=0;exitDy=0;" edge="1" parent="1" source="3TpAt6abaZI0W-LzQXr_-34" target="3TpAt6abaZI0W-LzQXr_-30">
          <mxGeometry relative="1" as="geometry">
            <mxPoint x="480" y="-340" as="targetPoint" />
            <mxPoint x="455" y="-610" as="sourcePoint" />
          </mxGeometry>
        </mxCell>
        <mxCell id="3TpAt6abaZI0W-LzQXr_-30" value="return false" style="shape=parallelogram;perimeter=parallelogramPerimeter;whiteSpace=wrap;html=1;fixedSize=1;" vertex="1" parent="1">
          <mxGeometry x="410" y="-480" width="120" height="60" as="geometry" />
        </mxCell>
      </root>
    </mxGraphModel>
  </diagram>
</mxfile>
